<svg id="Capa_1" data-name="Capa 1" xmlns="http://www.w3.org/2000/svg" viewBox="0 0 909.91 181.08"><defs><style>.cls-1{fill:#005597;}</style></defs><title>Logo_nuevo_08_05_2017</title><g id="claim"><path d="M273.7,136.8c0.5,3.3,1,7.2,4,11.4,4.2,6,9.5,7.3,14.7,7.3,11,0,14.5-6.5,16-9.4l24.9,1.8a35.75,35.75,0,0,1-7.5,13.4c-3,3.3-12.7,14-34.1,14-30.4,0-43.9-22.4-43.9-45.6,0-25.4,16.4-45.8,44.3-45.8,23.9,0,35.6,15.4,39.9,31.2,2.3,8.4,2.3,16.2,2.3,21.5H273.7v0.2Zm34.8-18.6a17.3,17.3,0,0,0-3.2-8.7,16.1,16.1,0,0,0-13.5-6.3c-13.9,0-16.7,10.7-17.9,15h34.6Z" transform="translate(-46.99 -50.2)"/><path d="M340.4,54.9h24.9l-1,91.2c0,7.5,2.3,8.2,11,8.2v19.4c-4,.3-7.7.5-11.7,0.5-4.3,0-12.7-.2-18.2-5.2-5.3-4.8-5.8-11.4-5.8-17.7Z" transform="translate(-46.99 -50.2)"/><path d="M458.8,55.1V173H435v-8.4a14.44,14.44,0,0,1-5.2,5.3c-6,4.3-12.9,5.2-17.5,5.2-20.7,0-37.2-16.7-37.2-45.3,0-27.7,16-45.6,38.2-45.6C424,84.2,430.2,89,434,92V55.1h24.8Zm-54.9,91.5c4,7.2,9.9,8,13.9,8,16.5,0,17-18.4,17-24.9,0-12.2-3.3-25.2-17-25.2-4,0-9.9,1.7-13.9,8.4-2.7,4.5-3.7,10.7-3.7,16.7C400.2,133.1,400.6,141.1,403.9,146.6Z" transform="translate(-46.99 -50.2)"/><path d="M491.1,55.1V77.3H466.7V55.1h24.4Zm0,31.4V173H466.7V86.5h24.4Z" transform="translate(-46.99 -50.2)"/><path d="M555,163.5c-3,4-8.7,11.4-22.7,11.4-20.5,0-35.9-16.7-35.9-43.8,0-34.1,21.4-46.8,37.7-46.8,9.5,0,17,4.8,21.4,13.2V86.3H579V173H555v-9.5Zm-6.4-55a13.7,13.7,0,0,0-9.9-4.3,16.22,16.22,0,0,0-12.2,6.3c-4.2,5.5-5.2,12.4-5.2,19,0,5.3.7,10.5,2.7,14.9,3.3,7.5,8.9,10.2,13.7,10.2a15.05,15.05,0,0,0,10.7-4.8c5.2-5.7,6.3-13.2,6.3-21C554.8,117.6,551.8,111.7,548.6,108.5Z" transform="translate(-46.99 -50.2)"/><path d="M610.2,86.5v14.2c3.5-8.5,8.7-15.9,22.4-15.9,0.8,0,2.5.2,4.2,0.3v22.4a30.5,30.5,0,0,0-5.8-.5c-7.3,0-12.4,2.2-15.5,6.3-3.7,4.8-4,9.2-4,31.4V173H586.3V86.5h23.9Z" transform="translate(-46.99 -50.2)"/><path d="M667.1,55.1V77.3H642.7V55.1h24.4Zm0,31.4V173H642.7V86.5h24.4Z" transform="translate(-46.99 -50.2)"/><path d="M762.4,129.4c0,28.7-20.5,46.1-46.3,46.1-28.6,0-43.3-21.2-43.3-45.6,0-25.7,16.2-45.9,46.1-45.9C748,84,762.4,106.2,762.4,129.4Zm-29.6-18a16.6,16.6,0,0,0-14.7-7.7,20.47,20.47,0,0,0-9.5,2.2c-9.7,5.3-10.5,17.7-10.5,23.7a45.65,45.65,0,0,0,1,9.7c3,13.9,12.9,16.2,18.5,16.2a17.54,17.54,0,0,0,15-8c4.2-6.2,4.5-14,4.5-18.7C737.1,123.7,736.8,117.2,732.8,111.4Z" transform="translate(-46.99 -50.2)"/><path d="M789.2,148.1V173H764.3V148.1h24.9Z" transform="translate(-46.99 -50.2)"/><path d="M816.7,136.8c0.5,3.3,1,7.2,4,11.4,4.2,6,9.5,7.3,14.7,7.3,11,0,14.5-6.5,16-9.4l24.9,1.8a35.75,35.75,0,0,1-7.5,13.4c-3,3.3-12.7,14-34.1,14-30.4,0-43.9-22.4-43.9-45.6,0-25.4,16.4-45.8,44.3-45.8,23.9,0,35.6,15.4,39.9,31.2,2.3,8.4,2.3,16.2,2.3,21.5H816.7v0.2Zm34.8-18.6a17.3,17.3,0,0,0-3.2-8.7,16.1,16.1,0,0,0-13.5-6.3c-13.9,0-16.7,10.7-17.9,15h34.6Z" transform="translate(-46.99 -50.2)"/><path d="M901.1,142.8c1,6.2,2.3,14.4,18.5,14.4,3.3,0,12.2-.5,12.2-8,0-5.2-4.3-6.7-9.7-8-2.3-.7-13.7-3.3-16.2-4-9.9-2.5-25.6-6.3-25.6-25.7,0-4.8.8-13.7,10.4-20.5,6.2-4.3,15-6.8,26.1-6.8,8.5,0,17.7,1.5,25.1,6.5,8.2,5.3,11.9,12.9,12.5,22.9l-23,1.2c-0.5-2.8-.8-5.2-2.2-7.2-0.3-.5-3.7-5.3-13.2-5.3-8.4,0-11.9,2.5-11.9,7,0,3.5,2.3,5.3,9.2,7,2,0.5,11.9,2.8,14.2,3.3,11.2,2.7,29.4,7,29.4,27.1,0,20.7-17.7,29.1-37.9,29.1a60.23,60.23,0,0,1-16.5-2c-5.7-1.3-15.2-4.8-20.9-14.7-3.7-6.2-3.8-11.5-3.8-15.4Z" transform="translate(-46.99 -50.2)"/></g><g id="logo"><path class="cls-1" d="M259.5,207.3v13.4h-6.3V184.4h13.9c4.1,0,7.3,1.1,9.6,3.2a10.61,10.61,0,0,1,3.6,8.4,10.36,10.36,0,0,1-3.5,8.3c-2.3,2-5.6,3-9.8,3h-7.5Zm0-5.1h7.6c2.2,0,4-.5,5.1-1.6A5.88,5.88,0,0,0,274,196a6.25,6.25,0,0,0-1.8-4.7,6.57,6.57,0,0,0-4.9-1.8h-7.7v12.7h-0.1Z" transform="translate(-46.99 -50.2)"/><path class="cls-1" d="M295.5,221.2a12.59,12.59,0,0,1-9.3-3.6,13,13,0,0,1-3.6-9.6v-0.7a15.27,15.27,0,0,1,1.6-7.2,11.05,11.05,0,0,1,4.4-4.9,11.56,11.56,0,0,1,6.3-1.8c3.7,0,6.5,1.2,8.5,3.5s3,5.7,3,9.9v2.4H288.8a8.3,8.3,0,0,0,2.2,5.3,6.55,6.55,0,0,0,4.9,1.9,8.16,8.16,0,0,0,6.8-3.4l3.3,3.1a10.29,10.29,0,0,1-4.3,3.7A13.4,13.4,0,0,1,295.5,221.2Zm-0.8-23a5.13,5.13,0,0,0-4,1.7,9.57,9.57,0,0,0-2,4.9h11.5v-0.4a7.42,7.42,0,0,0-1.6-4.6A4.72,4.72,0,0,0,294.7,198.2Z" transform="translate(-46.99 -50.2)"/><path class="cls-1" d="M324.7,199.3a19.48,19.48,0,0,0-2.5-.2c-2.8,0-4.6,1.1-5.6,3.2v18.4h-6.1V193.8h5.8l0.1,3a7,7,0,0,1,6.1-3.5,5.84,5.84,0,0,1,2.1.3Z" transform="translate(-46.99 -50.2)"/><path class="cls-1" d="M326.6,186.8a3.17,3.17,0,0,1,.9-2.3,3.92,3.92,0,0,1,5,0,3.39,3.39,0,0,1,0,4.6,3.92,3.92,0,0,1-5,0A3.17,3.17,0,0,1,326.6,186.8Zm6.4,34h-6V193.9h6.1v26.9H333Z" transform="translate(-46.99 -50.2)"/><path class="cls-1" d="M338.5,207a15.14,15.14,0,0,1,1.6-7.1,11.61,11.61,0,0,1,4.4-4.9,11.92,11.92,0,0,1,6.5-1.7,12.13,12.13,0,0,1,8.9,3.5c2.3,2.3,3.5,5.4,3.7,9.3v1.4a16.11,16.11,0,0,1-1.5,7.1,11.61,11.61,0,0,1-4.4,4.9,12,12,0,0,1-6.6,1.7,11.77,11.77,0,0,1-9.1-3.8c-2.3-2.5-3.4-5.9-3.4-10.1V207h-0.1Zm6,0.6a11.15,11.15,0,0,0,1.7,6.5,5.46,5.46,0,0,0,4.8,2.4,5.58,5.58,0,0,0,4.8-2.4c1.1-1.6,1.7-3.9,1.7-7a10.66,10.66,0,0,0-1.8-6.5,5.7,5.7,0,0,0-4.8-2.4,5.53,5.53,0,0,0-4.7,2.4C345.1,202.1,344.5,204.4,344.5,207.6Z" transform="translate(-46.99 -50.2)"/><path class="cls-1" d="M366.5,207.1a16.26,16.26,0,0,1,2.9-10,9.25,9.25,0,0,1,7.7-3.8,8.59,8.59,0,0,1,6.9,3V182.5h6.1v38.2h-5.5l-0.3-2.8a8.83,8.83,0,0,1-7.2,3.3,9.38,9.38,0,0,1-7.7-3.8C367.4,214.9,366.5,211.4,366.5,207.1Zm6,0.5a10.83,10.83,0,0,0,1.6,6.4,5.33,5.33,0,0,0,4.5,2.3A5.61,5.61,0,0,0,384,213V201.5a5.53,5.53,0,0,0-5.4-3.2,5.09,5.09,0,0,0-4.5,2.3C373,202.1,372.5,204.5,372.5,207.6Z" transform="translate(-46.99 -50.2)"/><path class="cls-1" d="M394.6,186.8a3.17,3.17,0,0,1,.9-2.3,3.92,3.92,0,0,1,5,0,3.39,3.39,0,0,1,0,4.6,3.92,3.92,0,0,1-5,0A3.17,3.17,0,0,1,394.6,186.8Zm6.4,34h-6V193.9h6.1v26.9H401Z" transform="translate(-46.99 -50.2)"/><path class="cls-1" d="M422.7,213.4a2.76,2.76,0,0,0-1.3-2.5,13,13,0,0,0-4.4-1.5,24.75,24.75,0,0,1-5.2-1.6c-3-1.5-4.5-3.6-4.5-6.4a7.2,7.2,0,0,1,2.9-5.8,11.39,11.39,0,0,1,7.5-2.3,12.1,12.1,0,0,1,7.8,2.4,7.62,7.62,0,0,1,3,6.2h-6.1a3.6,3.6,0,0,0-1.3-2.9,4.87,4.87,0,0,0-3.4-1.2,5.27,5.27,0,0,0-3.2.9,3,3,0,0,0-1.3,2.5,2.51,2.51,0,0,0,1.2,2.2,20.2,20.2,0,0,0,4.7,1.6,19.15,19.15,0,0,1,5.6,1.9,7.1,7.1,0,0,1,3,2.6,6.2,6.2,0,0,1,1,3.7,7.08,7.08,0,0,1-3,5.9,12.78,12.78,0,0,1-7.9,2.3,13.82,13.82,0,0,1-5.9-1.2,9.39,9.39,0,0,1-4-3.3,7.49,7.49,0,0,1-1.4-4.5h5.9a4.38,4.38,0,0,0,1.6,3.3,6.16,6.16,0,0,0,4,1.2,6,6,0,0,0,3.6-.9A3.81,3.81,0,0,0,422.7,213.4Z" transform="translate(-46.99 -50.2)"/><path class="cls-1" d="M438.3,193.8l0.2,2.8a9.77,9.77,0,0,1,7.8-3.3c3.6,0,6.1,1.4,7.4,4.1a9.48,9.48,0,0,1,8.3-4.1c3,0,5.2.8,6.6,2.5a11.15,11.15,0,0,1,2.2,7.3v17.7h-6.1V203.3a5.74,5.74,0,0,0-1.1-3.8,4.84,4.84,0,0,0-3.7-1.2,5.33,5.33,0,0,0-3.4,1.1,5.16,5.16,0,0,0-1.8,2.9v18.5h-6.1V203c-0.1-3.2-1.7-4.8-4.9-4.8a5.49,5.49,0,0,0-5.2,3v19.5h-6.1V193.8h5.9Z" transform="translate(-46.99 -50.2)"/><path class="cls-1" d="M475.5,207a15.14,15.14,0,0,1,1.6-7.1,11.61,11.61,0,0,1,4.4-4.9,11.92,11.92,0,0,1,6.5-1.7,12.13,12.13,0,0,1,8.9,3.5c2.3,2.3,3.5,5.4,3.7,9.3v1.4a16.11,16.11,0,0,1-1.5,7.1,11.61,11.61,0,0,1-4.4,4.9,12,12,0,0,1-6.6,1.7,11.77,11.77,0,0,1-9.1-3.8c-2.3-2.5-3.4-5.9-3.4-10.1V207h-0.1Zm6,0.6a11.15,11.15,0,0,0,1.7,6.5,5.46,5.46,0,0,0,4.8,2.4,5.58,5.58,0,0,0,4.8-2.4c1.1-1.6,1.7-3.9,1.7-7a10.66,10.66,0,0,0-1.8-6.5,5.7,5.7,0,0,0-4.8-2.4,5.53,5.53,0,0,0-4.7,2.4C482.1,202.1,481.5,204.4,481.5,207.6Z" transform="translate(-46.99 -50.2)"/><path class="cls-1" d="M533.7,220.8a8.54,8.54,0,0,1-.7-2.5,9.44,9.44,0,0,1-7.1,3,9.64,9.64,0,0,1-6.6-2.3,7.47,7.47,0,0,1-2.6-5.7,7.63,7.63,0,0,1,3.2-6.6c2.1-1.5,5.2-2.3,9.2-2.3h3.7v-1.8a4.46,4.46,0,0,0-1.2-3.3A4.92,4.92,0,0,0,528,198a5.29,5.29,0,0,0-3.4,1,3.17,3.17,0,0,0-1.3,2.6h-6.1a6.29,6.29,0,0,1,1.5-4.1,9.42,9.42,0,0,1,4-3,14.71,14.71,0,0,1,5.6-1.1q4.8,0,7.5,2.4a8.58,8.58,0,0,1,2.9,6.7v12.2a13.43,13.43,0,0,0,1,5.8v0.4h-6v-0.1Zm-6.6-4.4a6.92,6.92,0,0,0,3.4-.9,6.65,6.65,0,0,0,2.4-2.3v-5.1h-3.3a9.16,9.16,0,0,0-5.1,1.2,3.9,3.9,0,0,0-1.7,3.3,3.49,3.49,0,0,0,1.2,2.8A4.79,4.79,0,0,0,527.1,216.4Z" transform="translate(-46.99 -50.2)"/><path class="cls-1" d="M581.2,207.6c0,4.2-.9,7.5-2.8,10a9,9,0,0,1-7.6,3.7,9.26,9.26,0,0,1-7.1-2.9v12.8h-6.1V193.9h5.6l0.2,2.7a8.75,8.75,0,0,1,7.2-3.2,8.92,8.92,0,0,1,7.7,3.7c1.9,2.4,2.8,5.8,2.8,10.2v0.3h0.1Zm-6-.6a11,11,0,0,0-1.6-6.4,5.23,5.23,0,0,0-4.6-2.4,5.46,5.46,0,0,0-5.3,3.1v12a5.6,5.6,0,0,0,5.4,3.1,5.33,5.33,0,0,0,4.5-2.3A13.31,13.31,0,0,0,575.2,207Z" transform="translate(-46.99 -50.2)"/><path class="cls-1" d="M597.5,221.2a12.59,12.59,0,0,1-9.3-3.6,13,13,0,0,1-3.6-9.6v-0.7a15.27,15.27,0,0,1,1.6-7.2,11.05,11.05,0,0,1,4.4-4.9,11.56,11.56,0,0,1,6.3-1.8c3.7,0,6.5,1.2,8.5,3.5s3,5.7,3,9.9v2.4H590.8a8.3,8.3,0,0,0,2.2,5.3,6.55,6.55,0,0,0,4.9,1.9,8.16,8.16,0,0,0,6.8-3.4l3.3,3.1a10.29,10.29,0,0,1-4.3,3.7A13.4,13.4,0,0,1,597.5,221.2Zm-0.8-23a5.13,5.13,0,0,0-4,1.7,9.57,9.57,0,0,0-2,4.9h11.5v-0.4a7.42,7.42,0,0,0-1.6-4.6A4.72,4.72,0,0,0,596.7,198.2Z" transform="translate(-46.99 -50.2)"/><path class="cls-1" d="M627.7,213.4a2.76,2.76,0,0,0-1.3-2.5,13,13,0,0,0-4.4-1.5,24.75,24.75,0,0,1-5.2-1.6c-3-1.5-4.5-3.6-4.5-6.4a7.2,7.2,0,0,1,2.9-5.8,11.39,11.39,0,0,1,7.5-2.3,12.1,12.1,0,0,1,7.8,2.4,7.62,7.62,0,0,1,3,6.2h-6.1a3.6,3.6,0,0,0-1.3-2.9,4.87,4.87,0,0,0-3.4-1.2,5.27,5.27,0,0,0-3.2.9,3,3,0,0,0-1.3,2.5,2.51,2.51,0,0,0,1.2,2.2,20.2,20.2,0,0,0,4.7,1.6,19.15,19.15,0,0,1,5.6,1.9,7.1,7.1,0,0,1,3,2.6,6.2,6.2,0,0,1,1,3.7,7.08,7.08,0,0,1-3,5.9,12.78,12.78,0,0,1-7.9,2.3,13.82,13.82,0,0,1-5.9-1.2,9.39,9.39,0,0,1-4-3.3,7.49,7.49,0,0,1-1.4-4.5h5.9a4.38,4.38,0,0,0,1.6,3.3,6.16,6.16,0,0,0,4,1.2,6,6,0,0,0,3.6-.9A3.81,3.81,0,0,0,627.7,213.4Z" transform="translate(-46.99 -50.2)"/><path class="cls-1" d="M652.7,220.8a8.54,8.54,0,0,1-.7-2.5,9.44,9.44,0,0,1-7.1,3,9.64,9.64,0,0,1-6.6-2.3,7.47,7.47,0,0,1-2.6-5.7,7.63,7.63,0,0,1,3.2-6.6c2.1-1.5,5.2-2.3,9.2-2.3h3.7v-1.8a4.46,4.46,0,0,0-1.2-3.3A4.92,4.92,0,0,0,647,198a5.29,5.29,0,0,0-3.4,1,3.17,3.17,0,0,0-1.3,2.6h-6.1a6.29,6.29,0,0,1,1.5-4.1,9.42,9.42,0,0,1,4-3,14.71,14.71,0,0,1,5.6-1.1q4.8,0,7.5,2.4a8.58,8.58,0,0,1,2.9,6.7v12.2a13.43,13.43,0,0,0,1,5.8v0.4h-6v-0.1Zm-6.6-4.4a6.92,6.92,0,0,0,3.4-.9,6.65,6.65,0,0,0,2.4-2.3v-5.1h-3.3a9.16,9.16,0,0,0-5.1,1.2,3.9,3.9,0,0,0-1.7,3.3,3.49,3.49,0,0,0,1.2,2.8A4.79,4.79,0,0,0,646.1,216.4Z" transform="translate(-46.99 -50.2)"/><path class="cls-1" d="M677.7,199.3a19.48,19.48,0,0,0-2.5-.2c-2.8,0-4.6,1.1-5.6,3.2v18.4h-6.1V193.8h5.8l0.1,3a7,7,0,0,1,6.1-3.5,5.84,5.84,0,0,1,2.1.3Z" transform="translate(-46.99 -50.2)"/><path class="cls-1" d="M693.5,207.1a16.26,16.26,0,0,1,2.9-10,9.25,9.25,0,0,1,7.7-3.8,8.59,8.59,0,0,1,6.9,3V182.5h6.1v38.2h-5.5l-0.3-2.8a8.83,8.83,0,0,1-7.2,3.3,9.38,9.38,0,0,1-7.7-3.8C694.4,214.9,693.5,211.4,693.5,207.1Zm6,0.5a10.83,10.83,0,0,0,1.6,6.4,5.33,5.33,0,0,0,4.5,2.3A5.61,5.61,0,0,0,711,213V201.5a5.53,5.53,0,0,0-5.4-3.2,5.09,5.09,0,0,0-4.5,2.3C700,202.1,699.5,204.5,699.5,207.6Z" transform="translate(-46.99 -50.2)"/><path class="cls-1" d="M733.5,221.2a12.59,12.59,0,0,1-9.3-3.6,13,13,0,0,1-3.6-9.6v-0.7a15.27,15.27,0,0,1,1.6-7.2,11.05,11.05,0,0,1,4.4-4.9,11.56,11.56,0,0,1,6.3-1.8c3.7,0,6.5,1.2,8.5,3.5s3,5.7,3,9.9v2.4H726.8a8.3,8.3,0,0,0,2.2,5.3,6.55,6.55,0,0,0,4.9,1.9,8.16,8.16,0,0,0,6.8-3.4l3.3,3.1a10.29,10.29,0,0,1-4.3,3.7A13.4,13.4,0,0,1,733.5,221.2Zm-0.8-23a5.13,5.13,0,0,0-4,1.7,9.57,9.57,0,0,0-2,4.9h11.5v-0.4a7.42,7.42,0,0,0-1.6-4.6A4.72,4.72,0,0,0,732.7,198.2Z" transform="translate(-46.99 -50.2)"/><path class="cls-1" d="M769.2,187.3v6.5H774v4.5h-4.8v15a3.22,3.22,0,0,0,.6,2.2,2.64,2.64,0,0,0,2.2.7,14.92,14.92,0,0,0,2.1-.2v4.7a14.38,14.38,0,0,1-4,.6c-4.6,0-7-2.6-7-7.7V198.3h-4.4v-4.5h4.4v-6.5h6.1Z" transform="translate(-46.99 -50.2)"/><path class="cls-1" d="M775.5,207a15.14,15.14,0,0,1,1.6-7.1,11.61,11.61,0,0,1,4.4-4.9,11.92,11.92,0,0,1,6.5-1.7,12.13,12.13,0,0,1,8.9,3.5c2.3,2.3,3.5,5.4,3.7,9.3v1.4a16.11,16.11,0,0,1-1.5,7.1,11.61,11.61,0,0,1-4.4,4.9,12,12,0,0,1-6.6,1.7,11.77,11.77,0,0,1-9.1-3.8c-2.3-2.5-3.4-5.9-3.4-10.1V207h-0.1Zm6,0.6a11.15,11.15,0,0,0,1.7,6.5,5.46,5.46,0,0,0,4.8,2.4,5.58,5.58,0,0,0,4.8-2.4c1.1-1.6,1.7-3.9,1.7-7a10.66,10.66,0,0,0-1.8-6.5,5.7,5.7,0,0,0-4.8-2.4,5.53,5.53,0,0,0-4.7,2.4C782.1,202.1,781.5,204.4,781.5,207.6Z" transform="translate(-46.99 -50.2)"/><path class="cls-1" d="M803.5,207.1a16.26,16.26,0,0,1,2.9-10,9.25,9.25,0,0,1,7.7-3.8,8.59,8.59,0,0,1,6.9,3V182.5h6.1v38.2h-5.5l-0.3-2.8a8.83,8.83,0,0,1-7.2,3.3,9.38,9.38,0,0,1-7.7-3.8C804.4,214.9,803.5,211.4,803.5,207.1Zm6,0.5a10.83,10.83,0,0,0,1.6,6.4,5.33,5.33,0,0,0,4.5,2.3A5.61,5.61,0,0,0,821,213V201.5a5.53,5.53,0,0,0-5.4-3.2,5.09,5.09,0,0,0-4.5,2.3C810,202.1,809.5,204.5,809.5,207.6Z" transform="translate(-46.99 -50.2)"/><path class="cls-1" d="M832.5,207a15.14,15.14,0,0,1,1.6-7.1,11.61,11.61,0,0,1,4.4-4.9,11.92,11.92,0,0,1,6.5-1.7,12.13,12.13,0,0,1,8.9,3.5c2.3,2.3,3.5,5.4,3.7,9.3v1.4a16.11,16.11,0,0,1-1.5,7.1,11.61,11.61,0,0,1-4.4,4.9,12,12,0,0,1-6.6,1.7,11.77,11.77,0,0,1-9.1-3.8c-2.3-2.5-3.4-5.9-3.4-10.1V207h-0.1Zm6,0.6a11.15,11.15,0,0,0,1.7,6.5,5.46,5.46,0,0,0,4.8,2.4,5.58,5.58,0,0,0,4.8-2.4c1.1-1.6,1.7-3.9,1.7-7a10.66,10.66,0,0,0-1.8-6.5,5.7,5.7,0,0,0-4.8-2.4,5.53,5.53,0,0,0-4.7,2.4C839.1,202.1,838.5,204.4,838.5,207.6Z" transform="translate(-46.99 -50.2)"/></g><g id="simbolo"><g id="Icono"><path class="cls-1" d="M224.2,111.6a91.09,91.09,0,0,0-78.9-61.4l-3.7,45.2a45.5,45.5,0,1,1-18.2,2.3h0.2V97.6l12.7-27.1-27-15.7V54.7h-0.1l-0.1-.1-0.1.1h-0.1c-47.6,16-73.2,67.5-57.1,114.9a91.11,91.11,0,0,0,115.3,56.9C214.7,210.5,240.3,159,224.2,111.6Z" transform="translate(-46.99 -50.2)"/></g></g></svg>